<svg width="518" height="150" viewBox="0 0 518 150" fill="none" xmlns="http://www.w3.org/2000/svg">
<rect width="518" height="150" fill="#ECECEC"/>
<path d="M393.885 37C393.885 33.2721 396.907 30.25 400.635 30.25H474.467C478.194 30.25 481.217 33.2721 481.217 37V53.8011H393.885V37Z" fill="#87AD39" stroke="black" stroke-width="2.5"/>
<rect x="393.885" y="51.8096" width="87.3315" height="23.5511" fill="#87AD39" stroke="black" stroke-width="2.5"/>
<rect x="393.885" y="73.3691" width="87.3315" height="23.5511" fill="#87AD39" stroke="black" stroke-width="2.5"/>
<path d="M393.885 94.9287H481.217V111.73C481.217 115.458 478.194 118.48 474.467 118.48H400.635C396.907 118.48 393.885 115.458 393.885 111.73V94.9287Z" fill="#87AD39" stroke="black" stroke-width="2.5"/>
<circle cx="451.924" cy="41.5764" r="11.3264" fill="white" stroke="black" stroke-width="2.5"/>
<circle cx="423.178" cy="85.5937" r="11.3264" fill="white" stroke="black" stroke-width="2.5"/>
<circle cx="470.789" cy="63.1357" r="11.3264" fill="white" stroke="black" stroke-width="2.5"/>
<circle cx="405.211" cy="107.154" r="11.3264" fill="white" stroke="black" stroke-width="2.5"/>
<path d="M393.885 37C393.885 33.2721 396.907 30.25 400.635 30.25H474.466C478.194 30.25 481.216 33.2721 481.216 37V53.8011H393.885V37Z" fill="#6F9520" stroke="black" stroke-width="2.5"/>
<rect x="393.885" y="51.8096" width="87.3315" height="23.5511" fill="#6F9520" stroke="black" stroke-width="2.5"/>
<rect x="393.885" y="73.3689" width="87.3315" height="23.5511" fill="#6F9520" stroke="black" stroke-width="2.5"/>
<path d="M393.885 94.9287H481.216V111.73C481.216 115.458 478.194 118.48 474.466 118.48H400.635C396.907 118.48 393.885 115.458 393.885 111.73V94.9287Z" fill="#6F9520" stroke="black" stroke-width="2.5"/>
<circle cx="451.924" cy="41.5764" r="11.3264" fill="white" stroke="black" stroke-width="2.5"/>
<circle cx="423.178" cy="85.5937" r="11.3264" fill="white" stroke="black" stroke-width="2.5"/>
<circle cx="470.788" cy="63.1357" r="11.3264" fill="white" stroke="black" stroke-width="2.5"/>
<circle cx="405.211" cy="107.154" r="11.3264" fill="white" stroke="black" stroke-width="2.5"/>
<path d="M472.355 31.3289H403.646C398.501 31.3289 394.329 35.5 394.329 40.6453V109.354C394.329 114.5 398.501 118.671 403.646 118.671H472.355C477.5 118.671 481.671 114.5 481.671 109.354V40.6453C481.671 35.5 477.5 31.3289 472.355 31.3289Z" fill="#A0C35A"/>
<path d="M481.687 53.1296H459.871V74.9923H481.687V53.1296Z" fill="white"/>
<path d="M438.024 74.9924H416.161V96.855H438.024V74.9924Z" fill="white"/>
<path d="M394.298 96.8545H416.161V118.717H403.615C398.475 118.717 394.298 114.54 394.298 109.401V96.8545Z" fill="white"/>
<path d="M459.871 31.2825H438.008V53.1451H459.871V31.2825Z" fill="white"/>
<path d="M472.354 29H403.646C397.217 29 392 34.2172 392 40.6456V109.354C392 115.783 397.217 121 403.646 121H472.354C478.783 121 484 115.783 484 109.354V40.6456C484 34.2172 478.783 29 472.354 29ZM479.342 40.6456V50.816H462.153V33.6582H472.354C476.205 33.6582 479.342 36.7948 479.342 40.6456ZM457.495 55.4743V72.6786H396.658V55.4743H457.495ZM440.321 50.816V33.6582H457.495V50.816H440.321ZM396.658 77.3369H413.832V94.5413H396.658V77.3369ZM418.49 77.3369H435.663V94.5413H418.49V77.3369ZM440.321 77.3369H479.342V94.5413H440.321V77.3369ZM479.342 72.6786H462.153V55.4743H479.342V72.6786ZM403.646 33.6582H435.663V50.816H396.658V40.6456C396.658 36.7948 399.795 33.6582 403.646 33.6582ZM396.658 109.354V99.184H413.832V116.342H403.646C399.795 116.342 396.658 113.205 396.658 109.354ZM472.354 116.342H418.49V99.184H479.342V109.354C479.342 113.205 476.205 116.342 472.354 116.342Z" fill="black"/>
<rect x="16" y="16" width="45" height="20" rx="6" fill="#363636"/>
<path d="M31.2715 27.66C31.2715 28.524 30.9475 29.136 30.2995 29.532C29.7955 29.844 29.0755 30 28.1515 30H25.3795V21.6H28.4995C29.3035 21.6 29.9395 21.804 30.3475 22.176C30.7915 22.56 30.9835 23.1 30.9835 23.736C30.9835 24.54 30.4195 25.236 29.4835 25.5C30.7315 25.836 31.2715 26.676 31.2715 27.66ZM30.1075 23.7C30.1075 22.824 29.5315 22.272 28.3195 22.272H26.1355V25.248H28.1515C29.4715 25.248 30.1075 24.672 30.1075 23.7ZM30.4075 27.684C30.4075 26.556 29.6755 25.92 28.0795 25.92H26.1355V29.328H28.3195C29.7235 29.328 30.4075 28.68 30.4075 27.684ZM38.8418 29.328V30H33.5498V21.6H38.7338V22.272H34.3058V25.332H37.5218V26.004H34.3058V29.328H38.8418ZM45.8675 21.6V22.272H43.2995V30H42.5435V22.272H39.9755V21.6H45.8675ZM49.9197 21.6L52.6797 30H51.8997L51.0357 27.324H47.7117L46.8957 30H46.1157L48.9237 21.6H49.9197ZM47.9397 26.652H50.8077L49.3677 22.212L47.9397 26.652Z" fill="white"/>
<path d="M25.99 56.601H30.094C29.689 61.677 27.07 63.324 23.884 63.324C19.618 63.324 16.594 60.732 16.594 53.523C16.594 47.34 19.24 43.695 22.723 43.695C24.127 43.695 25.261 43.992 26.287 44.748V44.073H29.5V50.823H26.098C26.098 48.879 25.747 47.367 24.073 47.367C22.615 47.367 21.886 49.041 21.886 53.334C21.886 58.464 22.696 59.544 24.1 59.544C25.126 59.544 25.774 58.626 25.99 56.601ZM36.6052 49.77C40.2232 49.77 42.3292 51.93 42.3292 56.574C42.3292 61.407 40.1422 63.324 36.6052 63.324C33.0682 63.324 30.8812 61.38 30.8812 56.574C30.8812 51.93 33.0142 49.77 36.6052 49.77ZM36.6052 60.138C37.8202 60.138 37.9012 58.815 37.9012 56.52C37.9012 53.901 37.6582 52.956 36.6052 52.956C35.5522 52.956 35.2822 53.901 35.2822 56.52C35.2822 58.815 35.3902 60.138 36.6052 60.138ZM56.7757 60.003V63H51.1867V54.387C51.1867 53.685 50.7817 53.172 50.0257 53.172C49.1887 53.172 48.7567 53.82 48.7567 54.819V60.003H49.8907V63H43.2757V60.003H44.4097V53.091H43.2757V50.094H48.4867V51.714C48.8377 51.147 49.7557 49.824 51.9697 49.824C54.3187 49.824 55.6147 51.633 55.6147 53.874V60.003H56.7757ZM71.0931 60.003V63H65.5041V54.387C65.5041 53.685 65.0991 53.172 64.3431 53.172C63.5061 53.172 63.0741 53.82 63.0741 54.819V60.003H64.2081V63H57.5931V60.003H58.7271V53.091H57.5931V50.094H62.8041V51.714C63.1551 51.147 64.0731 49.824 66.2871 49.824C68.6361 49.824 69.9321 51.633 69.9321 53.874V60.003H71.0931ZM77.5535 49.77C80.6585 49.77 83.0345 51.606 83.0345 56.628C83.0345 56.952 83.0075 57.384 82.9805 57.708H76.2305C76.2305 59.76 76.6625 60.435 77.7425 60.435C78.5255 60.435 79.0385 59.976 79.2815 59.004H82.9535C82.2515 61.947 80.4965 63.324 77.7155 63.324C74.1515 63.324 71.8295 61.839 71.8295 56.547C71.8295 51.552 74.5025 49.77 77.5535 49.77ZM76.2035 55.737H78.8765V55.386C78.8765 53.847 78.6875 52.74 77.5535 52.74C76.2305 52.74 76.2305 54.144 76.2035 55.737ZM91.0876 58.599H94.4086C94.0846 61.758 92.1946 63.324 89.5486 63.324C86.2276 63.324 83.9056 61.542 83.9056 56.547C83.9056 52.281 85.8226 49.77 88.5496 49.77C89.5486 49.77 90.6016 49.959 91.1956 50.472L91.1686 50.094H93.9496V54.981H91.1416C91.1416 53.766 90.8716 52.821 89.7376 52.821C88.7386 52.821 88.2796 53.874 88.2796 56.547C88.2796 59.76 88.7926 60.435 89.7646 60.435C90.4396 60.435 90.9526 59.868 91.0876 58.599ZM102.323 60.003V63H96.1672V53.091H95.0602V50.094H96.1672V45.72H100.514V50.094H102.323V53.091H100.514V60.003H102.323ZM108.795 44.424V48.447H104.394V44.424H108.795ZM109.902 60.003V63H103.314V60.003H104.448V53.091H103.314V50.094H108.795V60.003H109.902ZM116.26 49.77C119.878 49.77 121.984 51.93 121.984 56.574C121.984 61.407 119.797 63.324 116.26 63.324C112.723 63.324 110.536 61.38 110.536 56.574C110.536 51.93 112.669 49.77 116.26 49.77ZM116.26 60.138C117.475 60.138 117.556 58.815 117.556 56.52C117.556 53.901 117.313 52.956 116.26 52.956C115.207 52.956 114.937 53.901 114.937 56.52C114.937 58.815 115.045 60.138 116.26 60.138ZM136.431 60.003V63H130.842V54.387C130.842 53.685 130.437 53.172 129.681 53.172C128.844 53.172 128.412 53.82 128.412 54.819V60.003H129.546V63H122.931V60.003H124.065V53.091H122.931V50.094H128.142V51.714C128.493 51.147 129.411 49.824 131.625 49.824C133.974 49.824 135.27 51.633 135.27 53.874V60.003H136.431ZM145.018 55.467C146.503 56.115 147.448 57.222 147.448 59.031C147.448 61.785 145.666 63.324 143.101 63.324C141.94 63.324 141.13 63.081 140.05 62.406V63H137.35V58.545H140.158C140.158 59.814 140.455 60.678 141.778 60.678C142.426 60.678 143.074 60.408 143.074 59.544C143.074 58.923 142.669 58.572 142.102 58.329L139.834 57.357C138.403 56.736 137.566 55.494 137.566 53.847C137.566 51.39 139.375 49.77 141.805 49.77C142.75 49.77 143.479 50.04 144.235 50.526V50.094H146.962V54.117H144.181C144.181 53.226 144.235 52.146 143.074 52.146C142.426 52.146 141.913 52.578 141.913 53.28C141.913 53.847 142.291 54.252 142.885 54.522L145.018 55.467ZM152.266 50.202V54.063H148.729V50.202H152.266ZM152.266 59.139V63H148.729V59.139H152.266ZM167.85 51.876C170.064 52.956 171.225 54.603 171.225 57.222C171.225 60.813 169.065 63.324 165.528 63.324C163.827 63.324 162.828 62.919 161.37 61.947V63H158.184V56.628H161.559C161.505 58.383 161.829 59.922 163.881 59.922C165.177 59.922 165.987 59.139 165.987 57.87C165.987 56.898 165.393 56.331 164.475 55.926L161.748 54.684C159.75 53.766 158.508 52.146 158.508 49.581C158.508 46.152 160.668 43.695 163.8 43.695C164.988 43.695 166.338 44.1 167.418 44.748L167.445 44.073H170.577V49.716H167.202C167.202 47.88 166.986 46.773 165.393 46.773C164.367 46.773 163.692 47.502 163.692 48.609C163.692 49.5 164.178 50.094 164.961 50.472L167.85 51.876ZM180.422 49.824C182.555 49.824 184.391 50.985 184.391 56.331C184.391 61.974 182.636 63.216 180.341 63.216C179.018 63.216 177.884 62.406 177.533 61.488V64.944H178.667V67.914H172.052V64.944H173.186V53.091H172.079V50.094H177.425V51.768C178.1 50.337 179.261 49.824 180.422 49.824ZM178.694 60.003C179.909 60.003 179.963 58.788 179.963 56.547C179.963 53.982 179.72 53.118 178.667 53.118C177.614 53.118 177.398 53.982 177.398 56.547C177.398 58.788 177.479 60.003 178.694 60.003ZM191.117 49.77C194.735 49.77 196.841 51.93 196.841 56.574C196.841 61.407 194.654 63.324 191.117 63.324C187.58 63.324 185.393 61.38 185.393 56.574C185.393 51.93 187.526 49.77 191.117 49.77ZM191.117 60.138C192.332 60.138 192.413 58.815 192.413 56.52C192.413 53.901 192.17 52.956 191.117 52.956C190.064 52.956 189.794 53.901 189.794 56.52C189.794 58.815 189.902 60.138 191.117 60.138ZM206.886 49.905V53.766C204.132 53.658 203.241 54.468 203.241 57.33V60.003H204.672V63H197.787V60.003H198.921V53.091H197.787V50.094H202.998L202.971 52.173C203.7 50.823 204.996 49.905 206.589 49.905H206.886ZM214.832 60.003V63H208.676V53.091H207.569V50.094H208.676V45.72H213.023V50.094H214.832V53.091H213.023V60.003H214.832ZM223.329 55.467C224.814 56.115 225.759 57.222 225.759 59.031C225.759 61.785 223.977 63.324 221.412 63.324C220.251 63.324 219.441 63.081 218.361 62.406V63H215.661V58.545H218.469C218.469 59.814 218.766 60.678 220.089 60.678C220.737 60.678 221.385 60.408 221.385 59.544C221.385 58.923 220.98 58.572 220.413 58.329L218.145 57.357C216.714 56.736 215.877 55.494 215.877 53.847C215.877 51.39 217.686 49.77 220.116 49.77C221.061 49.77 221.79 50.04 222.546 50.526V50.094H225.273V54.117H222.492C222.492 53.226 222.546 52.146 221.385 52.146C220.737 52.146 220.224 52.578 220.224 53.28C220.224 53.847 220.602 54.252 221.196 54.522L223.329 55.467ZM243.97 56.871V63H231.091V59.652H232.441V47.421H231.091V44.073H243.889V50.202H240.271V47.421H237.409V52.092H240.298V54.792H237.409V59.652H240.352V56.871H243.97ZM257.483 60.003V63H252.029V61.542C251.678 62.46 250.49 63.27 249.14 63.27C246.872 63.27 245.171 61.974 245.171 56.331C245.171 50.985 247.034 49.824 249.14 49.824C250.274 49.824 251.354 50.283 252.029 51.579V47.07H250.733V44.073H256.376V60.003H257.483ZM250.868 60.03C252.083 60.03 252.164 58.815 252.164 56.574C252.164 54.009 251.921 53.118 250.895 53.118C249.842 53.118 249.599 54.009 249.599 56.574C249.599 58.815 249.626 60.03 250.868 60.03ZM263.966 44.424V48.447H259.565V44.424H263.966ZM265.073 60.003V63H258.485V60.003H259.619V53.091H258.485V50.094H263.966V60.003H265.073ZM272.84 60.003V63H266.684V53.091H265.577V50.094H266.684V45.72H271.031V50.094H272.84V53.091H271.031V60.003H272.84ZM279.311 44.424V48.447H274.91V44.424H279.311ZM280.418 60.003V63H273.83V60.003H274.964V53.091H273.83V50.094H279.311V60.003H280.418ZM286.777 49.77C290.395 49.77 292.501 51.93 292.501 56.574C292.501 61.407 290.314 63.324 286.777 63.324C283.24 63.324 281.053 61.38 281.053 56.574C281.053 51.93 283.186 49.77 286.777 49.77ZM286.777 60.138C287.992 60.138 288.073 58.815 288.073 56.52C288.073 53.901 287.83 52.956 286.777 52.956C285.724 52.956 285.454 53.901 285.454 56.52C285.454 58.815 285.562 60.138 286.777 60.138ZM306.948 60.003V63H301.359V54.387C301.359 53.685 300.954 53.172 300.198 53.172C299.361 53.172 298.929 53.82 298.929 54.819V60.003H300.063V63H293.448V60.003H294.582V53.091H293.448V50.094H298.659V51.714C299.01 51.147 299.928 49.824 302.142 49.824C304.491 49.824 305.787 51.633 305.787 53.874V60.003H306.948Z" fill="black"/>
<path d="M27.36 79.28C27.36 80.42 26.9 81.38 26.04 82.08C25.22 82.74 24.02 83.16 22.52 83.16H19.08V89H17.82V75H22.66C24.12 75 25.26 75.36 26.06 76.04C26.88 76.76 27.36 77.84 27.36 79.28ZM25.96 79C25.96 77.4 24.88 76.12 22.44 76.12H19.08V82.04H22.42C24.82 82.04 25.96 80.96 25.96 79ZM30.6555 75V89H29.5155V75H30.6555ZM41.4491 88.9V89H40.2691C40.2491 88.76 40.0891 88.26 40.0691 87.7C39.1891 88.52 37.8691 89.18 36.5691 89.18C34.7891 89.18 33.1091 88.3 33.1091 86.46C33.1091 84.12 35.3891 83.1 39.9691 82.38V81.76C39.9691 80.62 39.1491 79.76 37.2091 79.76C35.4491 79.76 34.8891 81.02 34.7091 81.68L33.5091 81.48C33.9891 79.84 35.2491 78.66 37.3091 78.66C38.9291 78.66 39.9491 79.14 40.5091 79.9C40.8891 80.42 41.1091 81.12 41.1091 82.02V86.88C41.1091 88.04 41.3091 88.52 41.4491 88.9ZM39.9691 86.74V83.34C36.1691 83.9 34.3691 84.82 34.3691 86.24C34.3691 87.22 34.9491 88.04 36.6691 88.04C38.0291 88.04 39.0691 87.6 39.9691 86.74ZM50.022 78.84H51.222L47.402 89.26C46.662 91.3 45.782 92.32 44.142 92.32C43.782 92.32 43.462 92.28 43.042 92.16V91.08C43.582 91.18 43.862 91.26 44.182 91.26C45.442 91.26 45.902 90.58 46.402 89.02L42.722 78.84H43.942L47.042 87.42L50.022 78.84ZM65.9348 83.9C65.9348 87.1 64.1948 89.16 61.4748 89.16C58.8348 89.16 57.0348 87.1 57.0348 83.9C57.0348 81.04 58.5748 78.68 61.4748 78.68C64.2348 78.68 65.9348 80.76 65.9348 83.9ZM64.6548 83.88C64.6548 81.78 63.8348 79.76 61.4748 79.76C59.2348 79.76 58.3148 81.58 58.3148 83.88C58.3148 86.3 59.2548 88.08 61.4748 88.08C63.6948 88.08 64.6548 86.28 64.6548 83.88ZM75.8417 78.84V89H74.7417V87.5C74.1217 88.14 73.0817 89.18 71.1817 89.18C69.8217 89.18 68.9017 88.44 68.5817 87.64C68.3217 87 68.2217 86.4 68.2217 85.74V78.84H69.3617V85.8C69.3617 87.18 69.9217 88.06 71.5617 88.06C73.0017 88.06 74.1017 87.06 74.7017 86.54V78.84H75.8417ZM83.7058 78.7V80.16H83.6458C83.2258 80.1 83.1458 80.1 82.9858 80.1C81.3858 80.1 80.4458 81.32 80.1458 81.72V89H79.0058V78.84H80.0658V80.86C80.6858 79.96 82.0458 78.7 83.7058 78.7ZM97.9934 82.1V89H96.8534V82.04C96.8534 80.66 96.2934 79.78 94.6534 79.78C93.1934 79.78 92.0934 80.82 91.4934 81.28V89H90.3534V78.84H91.4534V80.34C92.0734 79.7 93.1334 78.66 94.9934 78.66C96.3734 78.66 97.3134 79.4 97.6534 80.2C97.9134 80.84 97.9934 81.44 97.9934 82.1ZM108.197 86.22L109.177 86.78C108.537 87.8 107.157 89.16 104.817 89.16C102.097 89.16 100.297 87.1 100.297 84.1C100.297 81.2 101.997 78.68 104.877 78.68C106.457 78.68 107.697 79.3 108.417 80.54C108.877 81.32 109.157 82.44 109.157 83.84V83.98H101.537C101.537 86.54 102.897 88.08 104.917 88.08C106.837 88.08 107.737 86.98 108.197 86.22ZM101.617 83.02H107.937C107.917 81.28 107.097 79.76 104.997 79.76C102.517 79.76 101.637 81.7 101.617 83.02ZM122.004 78.84H123.184L120.024 89H119.044L116.744 80.58L114.344 89H113.324L110.264 78.84H111.544L113.884 87.1L116.264 78.84H117.264L119.564 87.2L122.004 78.84ZM136.705 86.22C136.705 88.06 134.825 89.16 132.725 89.16C131.185 89.16 129.705 88.42 128.885 86.96L129.865 86.24C130.405 87.16 131.285 88.12 132.905 88.12C133.985 88.12 135.465 87.66 135.465 86.32C135.465 85.42 134.885 84.98 133.925 84.7C133.445 84.56 132.425 84.36 131.705 84.14C129.905 83.58 129.365 82.68 129.365 81.48C129.365 80.66 129.805 79.94 130.425 79.48C131.105 78.96 131.965 78.68 132.785 78.68C134.265 78.68 135.645 79.24 136.405 80.7L135.365 81.38C135.005 80.62 134.125 79.74 132.905 79.74C131.805 79.74 130.625 80.26 130.625 81.48C130.625 82.3 131.265 82.8 132.065 83.04C132.345 83.12 133.025 83.3 133.645 83.44C135.525 83.9 136.705 84.58 136.705 86.22ZM146.97 83.88C146.97 87.68 144.71 89.16 142.85 89.16C141.85 89.16 140.75 88.7 139.99 87.9V92.32H138.85V78.84H139.95V80.14C140.77 79.2 141.85 78.66 143.09 78.66C145.51 78.66 146.97 81.1 146.97 83.88ZM145.71 84C145.71 81.08 144.55 79.8 142.77 79.8C141.73 79.8 140.75 80.48 139.99 81.1V86.94C140.67 87.44 141.71 88.02 142.79 88.02C144.93 88.02 145.71 86.12 145.71 84ZM157.536 83.9C157.536 87.1 155.796 89.16 153.076 89.16C150.436 89.16 148.636 87.1 148.636 83.9C148.636 81.04 150.176 78.68 153.076 78.68C155.836 78.68 157.536 80.76 157.536 83.9ZM156.256 83.88C156.256 81.78 155.436 79.76 153.076 79.76C150.836 79.76 149.916 81.58 149.916 83.88C149.916 86.3 150.856 88.08 153.076 88.08C155.296 88.08 156.256 86.28 156.256 83.88ZM164.643 78.7V80.16H164.583C164.163 80.1 164.083 80.1 163.923 80.1C162.323 80.1 161.383 81.32 161.083 81.72V89H159.943V78.84H161.003V80.86C161.623 79.96 162.983 78.7 164.643 78.7ZM170.758 88V88.94C170.258 89.1 169.878 89.18 169.438 89.18C168.338 89.18 167.278 88.68 167.278 86.5C167.278 83.9 167.278 81.42 167.278 79.76H165.718V78.84H167.258L167.438 75.72H168.418V78.84H170.758V79.76H168.418V86.82C168.418 87.98 169.178 88.14 169.718 88.14C169.918 88.14 170.518 88.06 170.758 88ZM179.811 86.22C179.811 88.06 177.931 89.16 175.831 89.16C174.291 89.16 172.811 88.42 171.991 86.96L172.971 86.24C173.511 87.16 174.391 88.12 176.011 88.12C177.091 88.12 178.571 87.66 178.571 86.32C178.571 85.42 177.991 84.98 177.031 84.7C176.551 84.56 175.531 84.36 174.811 84.14C173.011 83.58 172.471 82.68 172.471 81.48C172.471 80.66 172.911 79.94 173.531 79.48C174.211 78.96 175.071 78.68 175.891 78.68C177.371 78.68 178.751 79.24 179.511 80.7L178.471 81.38C178.111 80.62 177.231 79.74 176.011 79.74C174.911 79.74 173.731 80.26 173.731 81.48C173.731 82.3 174.371 82.8 175.171 83.04C175.451 83.12 176.131 83.3 176.751 83.44C178.631 83.9 179.811 84.58 179.811 86.22ZM186.271 83.08V84.26H181.691V83.08H186.271ZM192.73 88V88.94C192.23 89.1 191.85 89.18 191.41 89.18C190.31 89.18 189.25 88.68 189.25 86.5C189.25 83.9 189.25 81.42 189.25 79.76H187.69V78.84H189.23L189.41 75.72H190.39V78.84H192.73V79.76H190.39V86.82C190.39 87.98 191.15 88.14 191.69 88.14C191.89 88.14 192.49 88.06 192.73 88ZM202.583 82.1V89H201.443V82.04C201.443 80.66 200.883 79.78 199.243 79.78C197.783 79.78 196.663 80.84 196.083 81.28V89H194.943V75H196.083V80.3C196.703 79.66 197.723 78.66 199.583 78.66C200.963 78.66 201.903 79.4 202.243 80.2C202.503 80.84 202.583 81.44 202.583 82.1ZM212.786 86.22L213.766 86.78C213.126 87.8 211.746 89.16 209.406 89.16C206.686 89.16 204.886 87.1 204.886 84.1C204.886 81.2 206.586 78.68 209.466 78.68C211.046 78.68 212.286 79.3 213.006 80.54C213.466 81.32 213.746 82.44 213.746 83.84V83.98H206.126C206.126 86.54 207.486 88.08 209.506 88.08C211.426 88.08 212.326 86.98 212.786 86.22ZM206.206 83.02H212.526C212.506 81.28 211.686 79.76 209.586 79.76C207.106 79.76 206.226 81.7 206.206 83.02ZM229.454 82.04V89H228.314V81.86C228.314 80.68 227.814 79.78 226.354 79.78C225.174 79.78 223.974 80.78 223.374 81.26V89H222.234V81.86C222.234 80.66 221.794 79.78 220.274 79.78C219.114 79.78 217.814 80.86 217.294 81.28V89H216.154V78.84H217.254V80.3C217.874 79.64 218.834 78.66 220.554 78.66C221.874 78.66 222.694 79.3 223.194 80.38C224.034 79.58 224.894 78.66 226.634 78.66C227.914 78.66 228.814 79.38 229.154 80.18C229.414 80.8 229.454 81.44 229.454 82.04ZM239.661 86.22L240.641 86.78C240.001 87.8 238.621 89.16 236.281 89.16C233.561 89.16 231.761 87.1 231.761 84.1C231.761 81.2 233.461 78.68 236.341 78.68C237.921 78.68 239.161 79.3 239.881 80.54C240.341 81.32 240.621 82.44 240.621 83.84V83.98H233.001C233.001 86.54 234.361 88.08 236.381 88.08C238.301 88.08 239.201 86.98 239.661 86.22ZM233.081 83.02H239.401C239.381 81.28 238.561 79.76 236.461 79.76C233.981 79.76 233.101 81.7 233.081 83.02ZM250.409 75V89H249.329V87.76C248.509 88.52 247.529 89.18 246.209 89.18C243.669 89.18 242.289 86.76 242.289 83.92C242.289 80.1 244.649 78.66 246.469 78.66C247.629 78.66 248.569 79.1 249.269 79.9V75H250.409ZM249.269 86.82V80.88C248.569 80.34 247.709 79.8 246.569 79.8C244.329 79.8 243.549 81.82 243.549 83.88C243.549 86.88 244.849 88.04 246.489 88.04C247.589 88.04 248.509 87.5 249.269 86.82ZM24.42 108.22C24.42 110.06 22.54 111.16 20.44 111.16C18.9 111.16 17.42 110.42 16.6 108.96L17.58 108.24C18.12 109.16 19 110.12 20.62 110.12C21.7 110.12 23.18 109.66 23.18 108.32C23.18 107.42 22.6 106.98 21.64 106.7C21.16 106.56 20.14 106.36 19.42 106.14C17.62 105.58 17.08 104.68 17.08 103.48C17.08 102.66 17.52 101.94 18.14 101.48C18.82 100.96 19.68 100.68 20.5 100.68C21.98 100.68 23.36 101.24 24.12 102.7L23.08 103.38C22.72 102.62 21.84 101.74 20.62 101.74C19.52 101.74 18.34 102.26 18.34 103.48C18.34 104.3 18.98 104.8 19.78 105.04C20.06 105.12 20.74 105.3 21.36 105.44C23.24 105.9 24.42 106.58 24.42 108.22ZM34.6844 105.88C34.6844 109.68 32.4244 111.16 30.5644 111.16C29.5644 111.16 28.4644 110.7 27.7044 109.9V114.32H26.5644V100.84H27.6644V102.14C28.4844 101.2 29.5644 100.66 30.8044 100.66C33.2244 100.66 34.6844 103.1 34.6844 105.88ZM33.4244 106C33.4244 103.08 32.2644 101.8 30.4844 101.8C29.4444 101.8 28.4644 102.48 27.7044 103.1V108.94C28.3844 109.44 29.4244 110.02 30.5044 110.02C32.6444 110.02 33.4244 108.12 33.4244 106ZM38.3913 97V98.78H37.1313V97H38.3913ZM38.3313 100.84V111H37.1913V100.84H38.3313ZM49.1848 104.1V111H48.0448V104.04C48.0448 102.66 47.4848 101.78 45.8448 101.78C44.3848 101.78 43.2848 102.82 42.6848 103.28V111H41.5448V100.84H42.6448V102.34C43.2648 101.7 44.3248 100.66 46.1848 100.66C47.5648 100.66 48.5048 101.4 48.8448 102.2C49.1048 102.84 49.1848 103.44 49.1848 104.1ZM60.388 105.9C60.388 109.1 58.648 111.16 55.928 111.16C53.288 111.16 51.488 109.1 51.488 105.9C51.488 103.04 53.028 100.68 55.928 100.68C58.688 100.68 60.388 102.76 60.388 105.9ZM59.108 105.88C59.108 103.78 58.288 101.76 55.928 101.76C53.688 101.76 52.768 103.58 52.768 105.88C52.768 108.3 53.708 110.08 55.928 110.08C58.148 110.08 59.108 108.28 59.108 105.88ZM67.0377 97.02V98.06C66.7177 98.02 66.1577 97.96 65.8177 97.96C64.9377 97.96 64.2777 98.24 64.2777 99.16V100.84H66.3177V101.76H64.2777V111H63.1377V101.76H61.5377V100.84H63.1377V99.52C63.1377 98.82 63.3777 98.22 63.7177 97.8C64.1977 97.2 64.9177 96.9 65.5777 96.9C65.9977 96.9 66.5577 96.94 67.0377 97.02ZM72.6236 97.02V98.06C72.3036 98.02 71.7436 97.96 71.4036 97.96C70.5236 97.96 69.8636 98.24 69.8636 99.16V100.84H71.9036V101.76H69.8636V111H68.7236V101.76H67.1236V100.84H68.7236V99.52C68.7236 98.82 68.9636 98.22 69.3036 97.8C69.7836 97.2 70.5036 96.9 71.1636 96.9C71.5836 96.9 72.1436 96.94 72.6236 97.02ZM86.6933 100.66V102.18H86.5733C86.2533 101.98 85.8533 101.92 85.4733 101.92C85.2733 101.92 84.9133 101.98 84.8133 102C85.1933 102.54 85.4533 103.24 85.4533 104.1C85.4533 105.98 84.0133 107.34 81.7733 107.34C81.1733 107.34 80.6333 107.18 80.1733 106.98C79.4533 107.22 79.2133 107.64 79.2133 108.04C79.2133 108.7 79.7733 108.88 80.5533 108.92L83.5333 109.08C85.6933 109.2 86.5933 110 86.5933 111.42C86.5933 113.04 85.1333 114.34 81.8133 114.34C78.7933 114.34 77.5333 113.18 77.5333 111.74C77.5333 110.86 78.1133 110.06 79.2133 109.68C78.3933 109.34 78.0933 108.92 78.0933 108.24C78.0933 107.64 78.4333 106.96 79.5133 106.54C78.6533 105.92 78.2133 105.18 78.2133 104.16C78.2133 102.22 79.7333 100.68 81.9733 100.68C82.7333 100.68 83.6333 100.96 84.3133 101.5C84.9533 100.92 85.7733 100.66 86.6933 100.66ZM84.2333 104.06C84.2333 102.66 83.2533 101.64 81.8333 101.64C80.4133 101.64 79.4333 102.7 79.4333 104.1C79.4333 105.46 80.3933 106.4 81.8333 106.4C83.2733 106.4 84.2333 105.42 84.2333 104.06ZM85.3733 111.56C85.3733 110.62 84.8333 110.2 83.0733 110.14L79.8933 110.02C79.1133 110.4 78.7733 110.82 78.7733 111.5C78.7733 112.68 79.7933 113.36 82.0733 113.36C84.3533 113.36 85.3733 112.62 85.3733 111.56ZM96.2928 110.9V111H95.1128C95.0928 110.76 94.9328 110.26 94.9128 109.7C94.0328 110.52 92.7128 111.18 91.4128 111.18C89.6328 111.18 87.9528 110.3 87.9528 108.46C87.9528 106.12 90.2328 105.1 94.8128 104.38V103.76C94.8128 102.62 93.9928 101.76 92.0528 101.76C90.2928 101.76 89.7328 103.02 89.5528 103.68L88.3528 103.48C88.8328 101.84 90.0928 100.66 92.1528 100.66C93.7728 100.66 94.7928 101.14 95.3528 101.9C95.7328 102.42 95.9528 103.12 95.9528 104.02V108.88C95.9528 110.04 96.1528 110.52 96.2928 110.9ZM94.8128 108.74V105.34C91.0128 105.9 89.2128 106.82 89.2128 108.24C89.2128 109.22 89.7928 110.04 91.5128 110.04C92.8728 110.04 93.9128 109.6 94.8128 108.74ZM112.306 104.04V111H111.166V103.86C111.166 102.68 110.666 101.78 109.206 101.78C108.026 101.78 106.826 102.78 106.226 103.26V111H105.086V103.86C105.086 102.66 104.646 101.78 103.126 101.78C101.966 101.78 100.666 102.86 100.146 103.28V111H99.0058V100.84H100.106V102.3C100.726 101.64 101.686 100.66 103.406 100.66C104.726 100.66 105.546 101.3 106.046 102.38C106.886 101.58 107.746 100.66 109.486 100.66C110.766 100.66 111.666 101.38 112.006 102.18C112.266 102.8 112.306 103.44 112.306 104.04ZM122.513 108.22L123.493 108.78C122.853 109.8 121.473 111.16 119.133 111.16C116.413 111.16 114.613 109.1 114.613 106.1C114.613 103.2 116.313 100.68 119.193 100.68C120.773 100.68 122.013 101.3 122.733 102.54C123.193 103.32 123.473 104.44 123.473 105.84V105.98H115.853C115.853 108.54 117.213 110.08 119.233 110.08C121.153 110.08 122.053 108.98 122.513 108.22ZM115.933 105.02H122.253C122.233 103.28 121.413 101.76 119.313 101.76C116.833 101.76 115.953 103.7 115.933 105.02ZM135.085 97.02V98.06C134.765 98.02 134.205 97.96 133.865 97.96C132.985 97.96 132.325 98.24 132.325 99.16V100.84H134.365V101.76H132.325V111H131.185V101.76H129.585V100.84H131.185V99.52C131.185 98.82 131.425 98.22 131.765 97.8C132.245 97.2 132.965 96.9 133.625 96.9C134.045 96.9 134.605 96.94 135.085 97.02ZM141.01 100.7V102.16H140.95C140.53 102.1 140.45 102.1 140.29 102.1C138.69 102.1 137.75 103.32 137.45 103.72V111H136.31V100.84H137.37V102.86C137.99 101.96 139.35 100.7 141.01 100.7ZM150.954 105.9C150.954 109.1 149.214 111.16 146.494 111.16C143.854 111.16 142.054 109.1 142.054 105.9C142.054 103.04 143.594 100.68 146.494 100.68C149.254 100.68 150.954 102.76 150.954 105.9ZM149.674 105.88C149.674 103.78 148.854 101.76 146.494 101.76C144.254 101.76 143.334 103.58 143.334 105.88C143.334 108.3 144.274 110.08 146.494 110.08C148.714 110.08 149.674 108.28 149.674 105.88ZM166.661 104.04V111H165.521V103.86C165.521 102.68 165.021 101.78 163.561 101.78C162.381 101.78 161.181 102.78 160.581 103.26V111H159.441V103.86C159.441 102.66 159.001 101.78 157.481 101.78C156.321 101.78 155.021 102.86 154.501 103.28V111H153.361V100.84H154.461V102.3C155.081 101.64 156.041 100.66 157.761 100.66C159.081 100.66 159.901 101.3 160.401 102.38C161.241 101.58 162.101 100.66 163.841 100.66C165.121 100.66 166.021 101.38 166.361 102.18C166.621 102.8 166.661 103.44 166.661 104.04ZM181.881 97V98.12H177.601V111H176.341V98.12H172.061V97H181.881ZM191.353 104.1V111H190.213V104.04C190.213 102.66 189.653 101.78 188.013 101.78C186.553 101.78 185.433 102.84 184.853 103.28V111H183.713V97H184.853V102.3C185.473 101.66 186.493 100.66 188.353 100.66C189.733 100.66 190.673 101.4 191.013 102.2C191.273 102.84 191.353 103.44 191.353 104.1ZM201.556 108.22L202.536 108.78C201.896 109.8 200.516 111.16 198.176 111.16C195.456 111.16 193.656 109.1 193.656 106.1C193.656 103.2 195.356 100.68 198.236 100.68C199.816 100.68 201.056 101.3 201.776 102.54C202.236 103.32 202.516 104.44 202.516 105.84V105.98H194.896C194.896 108.54 196.256 110.08 198.276 110.08C200.196 110.08 201.096 108.98 201.556 108.22ZM194.976 105.02H201.296C201.276 103.28 200.456 101.76 198.356 101.76C195.876 101.76 194.996 103.7 194.976 105.02ZM213.591 97L218.191 111H216.891L215.451 106.54H209.911L208.551 111H207.251L211.931 97H213.591ZM210.291 105.42H215.071L212.671 98.02L210.291 105.42ZM223.512 110V110.94C223.012 111.1 222.632 111.18 222.192 111.18C221.092 111.18 220.032 110.68 220.032 108.5C220.032 105.9 220.032 103.42 220.032 101.76H218.472V100.84H220.012L220.192 97.72H221.172V100.84H223.512V101.76H221.172V108.82C221.172 109.98 221.932 110.14 222.472 110.14C222.672 110.14 223.272 110.06 223.512 110ZM233.365 104.1V111H232.225V104.04C232.225 102.66 231.665 101.78 230.025 101.78C228.565 101.78 227.445 102.84 226.865 103.28V111H225.725V97H226.865V102.3C227.485 101.66 228.505 100.66 230.365 100.66C231.745 100.66 232.685 101.4 233.025 102.2C233.285 102.84 233.365 103.44 233.365 104.1ZM237.648 97V111H236.508V97H237.648ZM248.001 108.22L248.981 108.78C248.341 109.8 246.961 111.16 244.621 111.16C241.901 111.16 240.101 109.1 240.101 106.1C240.101 103.2 241.801 100.68 244.681 100.68C246.261 100.68 247.501 101.3 248.221 102.54C248.681 103.32 248.961 104.44 248.961 105.84V105.98H241.341C241.341 108.54 242.701 110.08 244.721 110.08C246.641 110.08 247.541 108.98 248.001 108.22ZM241.421 105.02H247.741C247.721 103.28 246.901 101.76 244.801 101.76C242.321 101.76 241.441 103.7 241.421 105.02ZM255.191 110V110.94C254.691 111.1 254.311 111.18 253.871 111.18C252.771 111.18 251.711 110.68 251.711 108.5C251.711 105.9 251.711 103.42 251.711 101.76H250.151V100.84H251.691L251.871 97.72H252.851V100.84H255.191V101.76H252.851V108.82C252.851 109.98 253.611 110.14 254.151 110.14C254.351 110.14 254.951 110.06 255.191 110ZM258.684 97V98.78H257.424V97H258.684ZM258.624 100.84V111H257.484V100.84H258.624ZM268.478 107.78L269.378 108.22C268.938 109.76 267.678 111.16 265.658 111.16C263.018 111.16 261.078 109.24 261.078 105.9C261.078 103.04 262.778 100.68 265.498 100.68C267.718 100.68 268.978 101.9 269.338 103.54L268.198 103.86C268.018 103.18 267.538 101.76 265.618 101.76C263.278 101.76 262.358 103.74 262.358 106.02C262.358 108.32 263.438 110.08 265.598 110.08C267.598 110.08 268.158 108.76 268.478 107.78ZM273.744 109.02V111H271.964V109.02H273.744Z" fill="black"/>
</svg>
