<svg width="32" height="42" viewBox="0 0 32 42" fill="none" xmlns="http://www.w3.org/2000/svg">
<path d="M32 42L32 10L1.33514e-05 10L1.19527e-05 42L32 42Z" fill="white"/>
<path fill-rule="evenodd" clip-rule="evenodd" d="M30 40L30 12L2.00001 12L2.00001 40L30 40ZM32 42L1.19527e-05 42L1.33514e-05 10L32 10L32 42Z" fill="black"/>
<path fill-rule="evenodd" clip-rule="evenodd" d="M1.33514e-05 25L32 25L32 27L1.3264e-05 27L1.33514e-05 25Z" fill="black"/>
<path fill-rule="evenodd" clip-rule="evenodd" d="M17 10L17 42L15 42L15 10L17 10Z" fill="black"/>
<path d="M32 26L32 10L16 10L16 26L32 26Z" fill="black"/>
<path d="M3.01737 1.76244C1.261 3.87057 1.83669 7.03763 4.29723 8.83881C8.29148 11.7584 17 12 17 12C17 12 14.6438 4.11311 10.6858 1.22424C8.20326 -0.601995 4.78471 -0.35449 3.01737 1.76244Z" fill="white"/>
<path fill-rule="evenodd" clip-rule="evenodd" d="M15.1105 11.8779C16.2591 11.9794 17 12 17 12C17 12 16.7927 11.3062 16.3978 10.2548C15.4614 7.76121 13.4698 3.25628 10.6858 1.22424C8.20326 -0.601995 4.78471 -0.35449 3.01737 1.76244C1.261 3.87057 1.83669 7.03763 4.29723 8.83881C7.12646 10.9068 12.321 11.6312 15.1105 11.8779ZM14.4479 10.09C14.2398 9.57084 13.996 8.99761 13.7187 8.40064C12.6484 6.09689 11.2203 3.75865 9.62575 2.59477L9.62044 2.59088C7.7692 1.22906 5.46052 1.55841 4.38854 2.84159C3.36881 4.06641 3.55275 6.14704 5.35888 7.46944C6.98501 8.65771 9.78065 9.40117 12.4314 9.82244C13.1524 9.93703 13.8368 10.0241 14.4479 10.09Z" fill="black"/>
<path d="M28.9281 1.83518C30.7316 3.99358 30.2061 7.18737 27.752 8.97545C23.7769 11.8802 15 12 15 12C15 12 17.2621 4.05866 21.2214 1.16635C23.6755 -0.621731 27.1195 -0.319077 28.9281 1.83518Z" fill="white"/>
<path fill-rule="evenodd" clip-rule="evenodd" d="M27.752 8.97545C30.2061 7.18737 30.7316 3.99358 28.9281 1.83518C27.1195 -0.319077 23.6755 -0.621731 21.2214 1.16635C18.428 3.20694 16.4794 7.76077 15.574 10.2658C15.1962 11.3114 15 12 15 12C15 12 15.7331 11.99 16.8716 11.9056C19.6722 11.6981 24.9258 11.0407 27.752 8.97545ZM17.5007 10.1329C18.1392 10.074 18.861 9.99306 19.623 9.88177C22.2915 9.49202 25.0861 8.77836 26.6912 7.60547L26.6932 7.60405C28.4447 6.32786 28.6549 4.23038 27.5594 2.91718C26.4138 1.55459 24.0623 1.24004 22.2812 2.53709C20.6942 3.69687 19.2889 6.03948 18.2418 8.35681C17.9572 8.98676 17.7095 9.59058 17.5007 10.1329Z" fill="black"/>
</svg>
